# xmcd
#
# Track frame offsets:
#	150
#	12985
#	24862
#	38995
#	54467
#	63925
#	74105
#	85380
#	119712
#	130617
#	143652
#	153130
#	164757
#	176790
#	188672
#	203812
#	218387
#	235947
#
# Disc length: 3342 seconds
#
# Revision: 1
# Processed by: cddbd v1.5.1PL0 Copyright (c) Steve Scherf et al.
# Submitted via: CDex 1.50Beta5
#
DISCID=fb0d0c12
DTITLE=Various Artist - 不滅の映画音楽
DYEAR=1900
DGENRE=
TTITLE0=レオン・ポップス/太陽がいっぱい
TTITLE1=レオン・ポップス/いそしぎ
TTITLE2=レオン・ポップス/ティファニーで朝食を「ムーン・リヴァー」
TTITLE3=スクリーン・ポップス/麗しのサブリナ「バラ色の人生」
TTITLE4=ロンドン・フィルム・フェスティヴァル(OR)/ウェスト・サイド物語「トゥナイト」
TTITLE5=ロンドン・フィルム・フェスティヴァル(OR)/シェルブールの雨傘
TTITLE6=レオン・ポップス/男と女
TTITLE7=ミラノ交響楽団/ロミオとジュリエット
TTITLE8=オリジナル・サウンドトラック/鉄道員
TTITLE9=ロンドン・フィルム・フェスティヴァル(OR)/黒いオルフェ
TTITLE10=レオン・ポップス/明日に向かって撃て「雨にぬれても」
TTITLE11=ロンドン・フィルム・フェスティヴァル(OR)/マイ・フェア・レディ「踊りあかそう」
TTITLE12=レオン・ポップス/007/ロシアより愛を込めて
TTITLE13=レオン・ポップス/ゴッドファーザー
TTITLE14=ザ・レターメン/華麗なる賭け「風のささやき」
TTITLE15=レオン・ポップス/卒業「サウンド・オブ・サイレンス」
TTITLE16=ロンドン・フィルム・フェスティヴァル(OR)/追憶
TTITLE17=レオン・ポップス/青春と光と影
EXTD=
EXTT0=
EXTT1=
EXTT2=
EXTT3=
EXTT4=
EXTT5=
EXTT6=
EXTT7=
EXTT8=
EXTT9=
EXTT10=
EXTT11=
EXTT12=
EXTT13=
EXTT14=
EXTT15=
EXTT16=
EXTT17=
PLAYORDER=
